<svg width="16" height="17" viewBox="0 0 16 17" fill="none" xmlns="http://www.w3.org/2000/svg">
<path d="M7.5 10.4597V14.9192C7.5 15.4494 7.94772 15.8792 8.5 15.8792H12.5C13.0523 15.8792 13.5 15.4494 13.5 14.9192V10.4597" stroke="black" stroke-linecap="round" stroke-linejoin="round"/>
<path d="M15.5 12.1877L11.1666 8.44564C10.7864 8.1174 10.2095 8.1174 9.82931 8.44564L5.49597 12.1877" stroke="black" stroke-linecap="round" stroke-linejoin="round"/>
<path d="M5.5 15.88H1.5V1.95997C1.5002 1.80273 1.58072 1.65559 1.71547 1.5662C1.85021 1.47681 2.02206 1.45655 2.17533 1.51197L9.17533 4.24477C9.37031 4.31446 9.49973 4.49304 9.5 4.69277V6.27997" stroke="black" stroke-linecap="round" stroke-linejoin="round"/>
<path d="M1.5 15.8799H0.5" stroke="black" stroke-linecap="round" stroke-linejoin="round"/>
<path d="M3 4.84009H1.5" stroke="black" stroke-linecap="round" stroke-linejoin="round"/>
<path d="M4 6.76001H1.5" stroke="black" stroke-linecap="round" stroke-linejoin="round"/>
<path d="M5.5 8.67993H1.5" stroke="black" stroke-linecap="round" stroke-linejoin="round"/>
<path d="M7 3.39358V1.47998" stroke="black" stroke-linecap="round" stroke-linejoin="round"/>
</svg>
