<svg width="17" height="16" viewBox="0 0 17 16" fill="none" xmlns="http://www.w3.org/2000/svg">
<path d="M16.5 11.5C16.5 13.7091 14.7091 15.5 12.5 15.5C10.2909 15.5 8.5 13.7091 8.5 11.5C8.5 9.29086 10.2909 7.5 12.5 7.5" stroke="black" stroke-linecap="round" stroke-linejoin="round"/>
<path d="M16.5 8.5L12.8533 12.146C12.7597 12.2398 12.6326 12.2925 12.5 12.2925C12.3674 12.2925 12.2403 12.2398 12.1467 12.146L11 11" stroke="black" stroke-linecap="round" stroke-linejoin="round"/>
<path d="M7.99999 15.5H2.49799C1.9457 15.5 1.49799 15.0523 1.49799 14.5V1.5C1.49799 0.947715 1.9457 0.5 2.49799 0.5H13C13.5523 0.5 14 0.947715 14 1.5V6.5" stroke="black" stroke-linecap="round" stroke-linejoin="round"/>
<path d="M6.99396 8.85278H4.99396C4.71782 8.85278 4.49396 8.62893 4.49396 8.35278V6.85278" stroke="black" stroke-linecap="round" stroke-linejoin="round"/>
<path d="M3.49396 5.35278L6.49396 2.85278L9.49396 5.35278" stroke="black" stroke-linecap="round" stroke-linejoin="round"/>
</svg>
