<svg width="36" height="40" viewBox="0 0 36 40" fill="none" xmlns="http://www.w3.org/2000/svg">
<g clip-path="url(#clip0)">
<rect width="36" height="40" fill="white"/>
<path d="M33.5816 31.0947H30.0083L11.3511 10.3647H0V16.2015H9.17523L27.8322 36.9315H36V33.7814L33.5816 31.0947ZM34.9453 35.7596H28.2692L9.61221 15.0296H9.19913V12.6697H8.14444V15.0296H1.05469V11.5366H2.46094V13.685H3.51562V11.5366H10.9144L29.2626 31.9232V34.3881H30.3173V32.2665H33.1449L34.9453 34.267V35.7596Z" fill="black"/>
<path d="M9.19913 9.38812V9.29047C9.19913 7.22626 7.68796 5.54688 5.83017 5.54688C3.97238 5.54688 2.46094 7.22626 2.46094 9.29047V9.38812H3.51562V9.29047C3.51562 7.87231 4.55383 6.71875 5.83017 6.71875C7.10623 6.71875 8.14444 7.87231 8.14444 9.29047V9.38812H9.19913Z" fill="black"/>
<path d="M1.05469 9.29047C1.05469 6.36475 3.19702 3.98438 5.83017 3.98438C8.46332 3.98438 10.6054 6.36475 10.6054 9.29047V9.38812H11.6601V9.29047C11.6601 5.71838 9.04477 2.8125 5.8299 2.8125C2.6153 2.8125 0 5.71838 0 9.29047V9.38812H1.05469V9.29047Z" fill="black"/>
<path d="M2.46094 17.178V19.1162H9.19913V17.178H8.14444V17.9443H3.51562V17.178H2.46094Z" fill="black"/>
<path d="M10.6054 35.9375H9.19913V31.2778H2.46094V35.7596H1.05469V17.178H0V36.9315H3.51562V32.4496H8.14444V37.1094H11.6601V19.7577H10.6054V35.9375Z" fill="black"/>
<path d="M2.46094 24.7675H9.19913V19.9756H2.46094V24.7675ZM3.51562 21.1475H8.14444V23.5956H3.51562V21.1475Z" fill="black"/>
<path d="M2.46094 30.4184H9.19913V25.6268H2.46094V30.4184ZM3.51562 26.7987H8.14444V29.2465H3.51562V26.7987Z" fill="black"/>
<path d="M16.3312 35.7596H15.377V23.8873H14.3223V36.9315H17.3859V26.1194H16.3312V35.7596Z" fill="black"/>
<path d="M22.2237 35.7596H21.2695V30.4346H20.2148V36.9315H23.2784V32.6666H22.2237V35.7596Z" fill="black"/>
<path d="M24.2768 29.0399L15.9524 19.7903L16.6981 18.9618L25.0227 28.2114L24.2768 29.0399ZM15.4553 19.238L14.7093 18.4094L15.4553 17.5809L16.201 18.4094L15.4553 19.238ZM14.2122 17.8571L13.4665 17.0285L14.2122 16.1996L14.9579 17.0285L14.2122 17.8571Z" fill="black"/>
</g>
<defs>
<clipPath id="clip0">
<rect width="36" height="40" fill="white"/>
</clipPath>
</defs>
</svg>
